<svg width="24" height="24" viewBox="0 0 24 24" fill="none" xmlns="http://www.w3.org/2000/svg">
<path fill-rule="evenodd" clip-rule="evenodd" d="M3.5 3C3.22386 3 3 3.22386 3 3.5V10.5C3 10.7761 3.22386 11 3.5 11H10.5C10.7761 11 11 10.7761 11 10.5V3.5C11 3.22386 10.7761 3 10.5 3H3.5ZM3.5 13C3.22386 13 3 13.2239 3 13.5V20.5C3 20.7761 3.22386 21 3.5 21H10.5C10.7761 21 11 20.7761 11 20.5V13.5C11 13.2239 10.7761 13 10.5 13H3.5ZM13 7C13 4.79086 14.7909 3 17 3C19.2091 3 21 4.79086 21 7C21 9.20914 19.2091 11 17 11C14.7909 11 13 9.20914 13 7ZM13.5 13C13.2239 13 13 13.2239 13 13.5V20.5C13 20.7761 13.2239 21 13.5 21H20.5C20.7761 21 21 20.7761 21 20.5V13.5C21 13.2239 20.7761 13 20.5 13H13.5Z" fill="white"/>
</svg>
