<svg width="48" height="28" viewBox="0 0 48 28" fill="none" xmlns="http://www.w3.org/2000/svg">
<path d="M0 0H48V3C46.8954 3 46 3.89543 46 5C46 6.10457 46.8954 7 48 7V9C46.8954 9 46 9.89543 46 11C46 12.1046 46.8954 13 48 13V15C46.8954 15 46 15.8954 46 17C46 18.1046 46.8954 19 48 19V21C46.8954 21 46 21.8954 46 23C46 24.1046 46.8954 25 48 25V28H0V25C1.10457 25 2 24.1046 2 23C2 21.8954 1.10457 21 0 21V19C1.10457 19 2 18.1046 2 17C2 15.8954 1.10457 15 0 15V13C1.10457 13 2 12.1046 2 11C2 9.89543 1.10457 9 0 9V7C1.10457 7 2 6.10457 2 5C2 3.89543 1.10457 3 0 3V0Z" fill="url(#paint0_linear_271_10168)"/>
<rect x="4.25" y="1.25" width="40.5" height="5.5" stroke="black" stroke-opacity="0.13" stroke-width="0.5"/>
<path d="M7 2L7.44903 3.38197H8.90211L7.72654 4.23607L8.17557 5.61803L7 4.76393L5.82443 5.61803L6.27346 4.23607L5.09789 3.38197H6.55097L7 2Z" fill="black" fill-opacity="0.46"/>
<path d="M22 2L22.449 3.38197H23.9021L22.7265 4.23607L23.1756 5.61803L22 4.76393L20.8244 5.61803L21.2735 4.23607L20.0979 3.38197H21.551L22 2Z" fill="black" fill-opacity="0.46"/>
<path d="M12 2L12.449 3.38197H13.9021L12.7265 4.23607L13.1756 5.61803L12 4.76393L10.8244 5.61803L11.2735 4.23607L10.0979 3.38197H11.551L12 2Z" fill="black" fill-opacity="0.46"/>
<path d="M27 2L27.449 3.38197H28.9021L27.7265 4.23607L28.1756 5.61803L27 4.76393L25.8244 5.61803L26.2735 4.23607L25.0979 3.38197H26.551L27 2Z" fill="black" fill-opacity="0.46"/>
<path d="M37 2L37.449 3.38197H38.9021L37.7265 4.23607L38.1756 5.61803L37 4.76393L35.8244 5.61803L36.2735 4.23607L35.0979 3.38197H36.551L37 2Z" fill="black" fill-opacity="0.46"/>
<path d="M17 2L17.449 3.38197H18.9021L17.7265 4.23607L18.1756 5.61803L17 4.76393L15.8244 5.61803L16.2735 4.23607L15.0979 3.38197H16.551L17 2Z" fill="black" fill-opacity="0.46"/>
<path d="M32 2L32.449 3.38197H33.9021L32.7265 4.23607L33.1756 5.61803L32 4.76393L30.8244 5.61803L31.2735 4.23607L30.0979 3.38197H31.551L32 2Z" fill="black" fill-opacity="0.46"/>
<path d="M42 2L42.449 3.38197H43.9021L42.7265 4.23607L43.1756 5.61803L42 4.76393L40.8244 5.61803L41.2735 4.23607L40.0979 3.38197H41.551L42 2Z" fill="black" fill-opacity="0.46"/>
<rect x="4.25" y="21.25" width="40.5" height="5.5" stroke="black" stroke-opacity="0.13" stroke-width="0.5"/>
<path d="M7 22L7.44903 23.382H8.90211L7.72654 24.2361L8.17557 25.618L7 24.7639L5.82443 25.618L6.27346 24.2361L5.09789 23.382H6.55097L7 22Z" fill="black" fill-opacity="0.46"/>
<path d="M22 22L22.449 23.382H23.9021L22.7265 24.2361L23.1756 25.618L22 24.7639L20.8244 25.618L21.2735 24.2361L20.0979 23.382H21.551L22 22Z" fill="black" fill-opacity="0.46"/>
<path d="M12 22L12.449 23.382H13.9021L12.7265 24.2361L13.1756 25.618L12 24.7639L10.8244 25.618L11.2735 24.2361L10.0979 23.382H11.551L12 22Z" fill="black" fill-opacity="0.46"/>
<path d="M27 22L27.449 23.382H28.9021L27.7265 24.2361L28.1756 25.618L27 24.7639L25.8244 25.618L26.2735 24.2361L25.0979 23.382H26.551L27 22Z" fill="black" fill-opacity="0.46"/>
<path d="M37 22L37.449 23.382H38.9021L37.7265 24.2361L38.1756 25.618L37 24.7639L35.8244 25.618L36.2735 24.2361L35.0979 23.382H36.551L37 22Z" fill="black" fill-opacity="0.46"/>
<path d="M17 22L17.449 23.382H18.9021L17.7265 24.2361L18.1756 25.618L17 24.7639L15.8244 25.618L16.2735 24.2361L15.0979 23.382H16.551L17 22Z" fill="black" fill-opacity="0.46"/>
<path d="M32 22L32.449 23.382H33.9021L32.7265 24.2361L33.1756 25.618L32 24.7639L30.8244 25.618L31.2735 24.2361L30.0979 23.382H31.551L32 22Z" fill="black" fill-opacity="0.46"/>
<path d="M42 22L42.449 23.382H43.9021L42.7265 24.2361L43.1756 25.618L42 24.7639L40.8244 25.618L41.2735 24.2361L40.0979 23.382H41.551L42 22Z" fill="black" fill-opacity="0.46"/>
<defs>
<linearGradient id="paint0_linear_271_10168" x1="-3.71199e-08" y1="2" x2="46.5" y2="27" gradientUnits="userSpaceOnUse">
<stop offset="0.204186" stop-color="#E5A245"/>
<stop offset="0.525" stop-color="#FFD073"/>
<stop offset="0.861746" stop-color="#E6992E"/>
</linearGradient>
</defs>
</svg>
