<svg width="24" height="24" viewBox="0 0 24 24" fill="none" xmlns="http://www.w3.org/2000/svg">
<g clip-path="url(#clip0_192_7261)">
<path d="M20.9598 3.50374L19.735 2.79663L18.8902 4.25999C13.2973 6.23361 7.48019 7.72507 1.64126 8.68012L1.77067 9.16308L0.804749 9.4219L2.02949 10.129C2.82969 9.91459 3.6522 10.3895 3.86661 11.1897C4.08102 11.9899 3.60615 12.8124 2.80595 13.0268L2.67654 12.5438L1.84002 13.2856L3.06477 13.9927C3.86497 13.7783 4.68747 14.2532 4.90189 15.0534C5.1163 15.8536 4.64143 16.6761 3.84123 16.8905L3.71182 16.4075L2.8753 17.1493L4.10005 17.8564C4.90024 17.642 5.72275 18.1169 5.93716 18.9171C6.15158 19.7173 5.6767 20.5398 4.8765 20.7542L4.03999 21.496L5.26473 22.2031C11.4851 19.8513 18.0204 18.1002 24.5832 17.0267L24.195 15.5778L22.9703 14.8707L22.8347 15.2715C22.6105 15.081 22.4398 14.8228 22.3579 14.5171C22.1435 13.717 22.6184 12.8944 23.4186 12.68L23.1597 11.7141L21.935 11.007L21.7994 11.4078C21.5752 11.2173 21.4045 10.9591 21.3226 10.6534C21.1082 9.85325 21.5831 9.03074 22.3833 8.81633L22.1245 7.8504L20.8997 7.1433L20.7641 7.54407C20.5399 7.35363 20.3693 7.09542 20.2873 6.78974C20.0729 5.98954 20.5478 5.16704 21.348 4.95263L20.9598 3.50374Z" fill="url(#paint0_linear_192_7261)"/>
<path d="M0.416489 7.97301C6.97936 6.89955 13.5147 5.14842 19.735 2.79663L20.1232 4.24552C19.323 4.45993 18.8482 5.28244 19.0626 6.08264C19.277 6.88284 20.0995 7.35771 20.8997 7.1433L21.1585 8.10922C20.3583 8.32364 19.8834 9.14614 20.0978 9.94634C20.3123 10.7465 21.1348 11.2214 21.935 11.007L22.1938 11.9729C21.3936 12.1873 20.9187 13.0098 21.1331 13.81C21.3475 14.6102 22.17 15.0851 22.9702 14.8707L23.3585 16.3196C16.7956 17.3931 10.2603 19.1442 4.03996 21.496L3.65173 20.0471C4.45193 19.8327 4.9268 19.0102 4.71239 18.21C4.49797 17.4098 3.67547 16.9349 2.87527 17.1493L2.61645 16.1834C3.41665 15.969 3.89152 15.1465 3.67711 14.3463C3.4627 13.5461 2.64019 13.0712 1.83999 13.2856L1.58117 12.3197C2.38137 12.1053 2.85625 11.2828 2.64183 10.4826C2.42742 9.68236 1.60492 9.20749 0.804717 9.4219L0.416489 7.97301Z" fill="url(#paint1_linear_192_7261)"/>
<g filter="url(#filter0_di_192_7261)">
<path d="M10.5935 7.31674L12.7835 9.81242L16.081 9.42318L14.3842 12.2772L15.7734 15.293L12.5347 14.5612L10.0958 16.8143L9.79095 13.508L6.89448 11.8847L9.94476 10.5731L10.5935 7.31674Z" fill="url(#paint2_linear_192_7261)"/>
<path d="M10.5935 7.31674L12.7835 9.81242L16.081 9.42318L14.3842 12.2772L15.7734 15.293L12.5347 14.5612L10.0958 16.8143L9.79095 13.508L6.89448 11.8847L9.94476 10.5731L10.5935 7.31674Z" stroke="#A46225" stroke-width="0.8" stroke-linejoin="round"/>
</g>
</g>
<defs>
<filter id="filter0_di_192_7261" x="4.49448" y="4.91675" width="13.9865" height="14.2976" filterUnits="userSpaceOnUse" color-interpolation-filters="sRGB">
<feFlood flood-opacity="0" result="BackgroundImageFix"/>
<feColorMatrix in="SourceAlpha" type="matrix" values="0 0 0 0 0 0 0 0 0 0 0 0 0 0 0 0 0 0 127 0" result="hardAlpha"/>
<feOffset/>
<feGaussianBlur stdDeviation="1"/>
<feComposite in2="hardAlpha" operator="out"/>
<feColorMatrix type="matrix" values="0 0 0 0 0.63833 0 0 0 0 0.574117 0 0 0 0 0.895182 0 0 0 0.55 0"/>
<feBlend mode="normal" in2="BackgroundImageFix" result="effect1_dropShadow_192_7261"/>
<feBlend mode="normal" in="SourceGraphic" in2="effect1_dropShadow_192_7261" result="shape"/>
<feColorMatrix in="SourceAlpha" type="matrix" values="0 0 0 0 0 0 0 0 0 0 0 0 0 0 0 0 0 0 127 0" result="hardAlpha"/>
<feOffset/>
<feGaussianBlur stdDeviation="0.5"/>
<feComposite in2="hardAlpha" operator="arithmetic" k2="-1" k3="1"/>
<feColorMatrix type="matrix" values="0 0 0 0 0.706815 0 0 0 0 0.300463 0 0 0 0 0.887907 0 0 0 1 0"/>
<feBlend mode="normal" in2="shape" result="effect2_innerShadow_192_7261"/>
</filter>
<linearGradient id="paint0_linear_192_7261" x1="10.559" y1="5.25579" x2="14.4413" y2="19.7447" gradientUnits="userSpaceOnUse">
<stop stop-color="#A46225"/>
<stop offset="1" stop-color="#733411"/>
</linearGradient>
<linearGradient id="paint1_linear_192_7261" x1="16.0007" y1="2.99927" x2="11.0007" y2="18.4993" gradientUnits="userSpaceOnUse">
<stop stop-color="#CC9533"/>
<stop offset="0.567516" stop-color="#EBC246"/>
<stop offset="1" stop-color="#A66B19"/>
</linearGradient>
<linearGradient id="paint2_linear_192_7261" x1="10.5935" y1="7.31674" x2="13.1817" y2="16.976" gradientUnits="userSpaceOnUse">
<stop stop-color="white"/>
<stop offset="1" stop-color="#E7C9F5"/>
</linearGradient>
<clipPath id="clip0_192_7261">
<rect width="24" height="24" fill="white"/>
</clipPath>
</defs>
</svg>
