<svg width="40" height="40" viewBox="0 0 40 40" fill="none" xmlns="http://www.w3.org/2000/svg">
<ellipse cx="20" cy="37.5" rx="13" ry="1.5" fill="black" fill-opacity="0.1"/>
<mask id="path-2-inside-1_3653_161" fill="white">
<path fill-rule="evenodd" clip-rule="evenodd" d="M16.607 5.20725C15.6505 4.65496 14.4273 4.98271 13.875 5.9393L11.3748 10.2698C12.3307 10.8218 12.6586 12.0439 12.1076 13.0002H30.1049L16.607 5.20725Z"/>
</mask>
<path fill-rule="evenodd" clip-rule="evenodd" d="M16.607 5.20725C15.6505 4.65496 14.4273 4.98271 13.875 5.9393L11.3748 10.2698C12.3307 10.8218 12.6586 12.0439 12.1076 13.0002H30.1049L16.607 5.20725Z" fill="url(#paint0_linear_3653_161)"/>
<path d="M13.875 5.9393L14.0482 6.0393L13.875 5.9393ZM16.607 5.20725L16.707 5.03404V5.03404L16.607 5.20725ZM11.3748 10.2698L11.2016 10.1698L11.1016 10.343L11.2747 10.443L11.3748 10.2698ZM12.1076 13.0002L11.9343 12.9004L11.7615 13.2002H12.1076V13.0002ZM30.1049 13.0002V13.2002H30.8513L30.2049 12.827L30.1049 13.0002ZM14.0482 6.0393C14.5452 5.17837 15.6461 4.8834 16.507 5.38045L16.707 5.03404C15.6548 4.42653 14.3093 4.78705 13.7018 5.8393L14.0482 6.0393ZM11.548 10.3698L14.0482 6.0393L13.7018 5.8393L11.2016 10.1698L11.548 10.3698ZM12.2809 13.1001C12.887 12.0481 12.5263 10.7039 11.4748 10.0966L11.2747 10.443C12.1351 10.9398 12.4302 12.0397 11.9343 12.9004L12.2809 13.1001ZM12.1076 13.2002H30.1049V12.8002H12.1076V13.2002ZM16.507 5.38045L30.0049 13.1734L30.2049 12.827L16.707 5.03404L16.507 5.38045Z" fill="#1586C7" mask="url(#path-2-inside-1_3653_161)"/>
<mask id="path-4-inside-2_3653_161" fill="white">
<path fill-rule="evenodd" clip-rule="evenodd" d="M11.2386 7.20146C10.1717 6.91557 9.07498 7.54874 8.7891 8.61567L7.61426 13.0002H32.8799L11.2386 7.20146Z"/>
</mask>
<path fill-rule="evenodd" clip-rule="evenodd" d="M11.2386 7.20146C10.1717 6.91557 9.07498 7.54874 8.7891 8.61567L7.61426 13.0002H32.8799L11.2386 7.20146Z" fill="url(#paint1_linear_3653_161)"/>
<path d="M8.7891 8.61567L8.59591 8.56391L8.7891 8.61567ZM11.2386 7.20146L11.1868 7.39464L11.2386 7.20146ZM7.61426 13.0002L7.42107 12.9485L7.35361 13.2002H7.61426V13.0002ZM32.8799 13.0002V13.2002L32.9316 12.807L32.8799 13.0002ZM8.98228 8.66743C9.23958 7.7072 10.2266 7.13735 11.1868 7.39464L11.2903 7.00827C10.1167 6.6938 8.91038 7.39028 8.59591 8.56391L8.98228 8.66743ZM7.80744 13.052L8.98228 8.66743L8.59591 8.56391L7.42107 12.9485L7.80744 13.052ZM7.61426 13.2002H32.8799V12.8002H7.61426V13.2002ZM11.1868 7.39464L32.8281 13.1934L32.9316 12.807L11.2903 7.00827L11.1868 7.39464Z" fill="#1586C7" mask="url(#path-4-inside-2_3653_161)"/>
<path fill-rule="evenodd" clip-rule="evenodd" d="M5.5 14C5.5 12.8954 6.39543 12 7.5 12H31.5C32.6046 12 33.5 12.8954 33.5 14V18H34.5L33.5 19C32.3954 19 31.5 19.8954 31.5 21C31.5 22.1046 32.3954 23 33.5 23V28C33.5 29.1046 32.6046 30 31.5 30H7.5C6.39543 30 5.5 29.1046 5.5 28V23L6.5 22V22.7324C7.0978 22.3866 7.5 21.7403 7.5 21C7.5 19.8954 6.60457 19 5.5 19V14Z" fill="url(#paint2_linear_3653_161)"/>
<path fill-rule="evenodd" clip-rule="evenodd" d="M6.5 13C6.5 11.8954 7.39543 11 8.5 11H32.5C33.6046 11 34.5 11.8954 34.5 13V18C33.3954 18 32.5 18.8954 32.5 20C32.5 21.1046 33.3954 22 34.5 22V27C34.5 28.1046 33.6046 29 32.5 29H8.5C7.39543 29 6.5 28.1046 6.5 27V22C7.60457 22 8.5 21.1046 8.5 20C8.5 18.8954 7.60457 18 6.5 18V13Z" fill="url(#paint3_linear_3653_161)"/>
<path d="M20.0716 14.7119C20.2659 14.389 20.7341 14.389 20.9284 14.7119L22.3657 17.1002C22.4355 17.2162 22.5494 17.2989 22.6813 17.3295L25.3969 17.9584C25.7641 18.0435 25.9088 18.4887 25.6617 18.7733L23.8344 20.8783C23.7457 20.9806 23.7022 21.1144 23.7139 21.2493L23.9549 24.0264C23.9875 24.4018 23.6087 24.677 23.2617 24.53L20.695 23.4426C20.5704 23.3898 20.4296 23.3898 20.305 23.4426L17.7383 24.53C17.3913 24.677 17.0125 24.4018 17.0451 24.0264L17.2861 21.2493C17.2978 21.1144 17.2543 20.9806 17.1656 20.8783L15.3383 18.7733C15.0912 18.4887 15.2359 18.0435 15.6031 17.9584L18.3187 17.3295C18.4506 17.2989 18.5645 17.2162 18.6343 17.1002L20.0716 14.7119Z" fill="url(#paint4_linear_3653_161)"/>
<defs>
<linearGradient id="paint0_linear_3653_161" x1="24.829" y1="10.3072" x2="20.1706" y2="27.693" gradientUnits="userSpaceOnUse">
<stop stop-color="#AED8F2"/>
<stop offset="1" stop-color="#1F77A9"/>
</linearGradient>
<linearGradient id="paint1_linear_3653_161" x1="22.8311" y1="10.3072" x2="18.1722" y2="27.6945" gradientUnits="userSpaceOnUse">
<stop stop-color="#AED8F2"/>
<stop offset="1" stop-color="#1F77A9"/>
</linearGradient>
<linearGradient id="paint2_linear_3653_161" x1="20" y1="12" x2="20" y2="30" gradientUnits="userSpaceOnUse">
<stop stop-color="#3185B8"/>
<stop offset="1" stop-color="#19628C"/>
</linearGradient>
<linearGradient id="paint3_linear_3653_161" x1="20.5" y1="11" x2="20.5" y2="29" gradientUnits="userSpaceOnUse">
<stop stop-color="#79A7C4"/>
<stop offset="1" stop-color="#4688AE"/>
</linearGradient>
<linearGradient id="paint4_linear_3653_161" x1="20.5" y1="14" x2="20.5" y2="26" gradientUnits="userSpaceOnUse">
<stop stop-color="#E0F4FF"/>
<stop offset="1" stop-color="#9BC8E3"/>
</linearGradient>
</defs>
</svg>
