<svg width="24" height="24" viewBox="0 0 24 24" fill="none" xmlns="http://www.w3.org/2000/svg">
<path d="M21.1427 9.86072L13.8938 2.85581C13.6311 2.60373 13.2063 2.60373 12.9436 2.85581C12.7928 3.00048 12.7381 3.19605 12.7615 3.38401V7.15638C7.2672 7.15798 2.66667 12.2048 2.66667 17.5084C2.66667 18.8694 2.96362 20.1619 3.49238 21.3333C4.27758 17.3341 8.64924 13.6435 12.7741 13.5481C12.7741 13.7657 12.7615 17.3129 12.7615 17.3129C12.7381 17.5008 12.7928 17.6964 12.9436 17.8411C12.9453 17.8423 12.9482 17.8423 12.9499 17.8439C13.0698 17.9649 13.2377 18.0407 13.426 18.0407C13.6328 18.0407 13.8086 17.9437 13.9314 17.8018L21.1427 10.8358C21.2826 10.7015 21.3419 10.524 21.3323 10.3476C21.3415 10.1717 21.2826 9.99417 21.1427 9.85951V9.86072ZM14.329 15.7211V12.2813C14.329 12.2813 13.1516 12.2709 12.7177 12.2709C9.62113 12.2709 5.42197 14.6198 3.99274 16.8688C3.99274 14.1108 7.49984 8.4328 12.7177 8.4328C13.0631 8.4328 14.329 8.44042 14.329 8.44042V4.98105L19.7907 10.3516L14.329 15.7211Z" fill="black"/>
</svg>
